<?xml version="1.0" standalone="no"?>
<!DOCTYPE svg PUBLIC "-//W3C//DTD SVG 20010904//EN"
 "http://www.w3.org/TR/2001/REC-SVG-20010904/DTD/svg10.dtd">
<svg version="1.0" xmlns="http://www.w3.org/2000/svg"
 width="300.000000pt" height="300.000000pt" viewBox="0 0 300.000000 300.000000"
 preserveAspectRatio="xMidYMid meet">
<metadata>
Created by potrace 1.14, written by Peter Selinger 2001-2017
</metadata>
<g transform="translate(0.000000,300.000000) scale(0.100000,-0.100000)"
fill="#000000" stroke="none">
<path d="M2178 2365 c-2 -2 -16 -5 -33 -8 -195 -31 -356 -138 -429 -284 -43
-86 -62 -204 -45 -280 6 -31 5 -33 -22 -34 -16 -1 -33 -3 -39 -4 -5 -1 -17 -3
-25 -4 -32 -2 -76 -55 -82 -96 -4 -34 -1 -46 21 -72 14 -17 45 -38 68 -48 131
-52 86 -128 -54 -90 -24 6 -28 4 -36 -27 -11 -42 0 -50 85 -54 80 -4 117 9
150 52 21 28 25 41 20 76 -6 48 -33 77 -97 103 -58 24 -70 34 -70 56 0 33 55
45 117 25 16 -5 22 -1 27 19 5 21 12 25 46 25 25 0 40 -5 41 -12 0 -7 1 -88 1
-180 l1 -168 43 0 44 0 0 93 c0 78 3 97 18 110 24 22 45 21 65 -1 13 -15 17
-39 17 -111 l0 -92 43 3 42 3 -1 114 0 114 -32 28 c-39 35 -88 38 -126 8 l-26
-20 0 55 0 56 148 0 147 0 -45 26 c-63 36 -89 62 -101 105 -35 114 58 198 224
204 91 3 237 -23 313 -55 26 -11 49 -19 51 -16 8 8 86 297 81 301 -69 46 -264
84 -430 83 -65 0 -119 -2 -120 -3z"/>
<path d="M429 2313 c0 -16 -1 -155 -2 -310 l-2 -283 193 0 192 0 0 310 0 310
-190 0 -190 0 -1 -27z"/>
<path d="M200 1560 l0 -200 120 0 c73 0 120 4 121 10 1 6 2 16 3 23 6 35 -12
44 -83 42 -70 -2 -71 -2 -72 24 0 14 -1 88 -1 164 l0 137 -44 0 -44 0 0 -200z"/>
<path d="M533 1639 c-37 -11 -36 -9 -23 -44 8 -22 13 -24 29 -15 39 21 111 7
111 -21 0 -3 -20 -9 -45 -12 -62 -9 -100 -31 -115 -66 -33 -81 49 -148 131
-107 39 20 39 20 39 1 0 -11 11 -15 39 -15 l39 0 0 88 c0 118 -11 158 -51 182
-35 21 -99 25 -154 9z m117 -170 c0 -33 -30 -54 -61 -44 -27 9 -22 46 8 61 38
18 53 13 53 -17z"/>
<path d="M790 1615 l0 -35 60 0 c33 0 60 -3 60 -7 0 -5 -13 -21 -28 -38 -59
-64 -95 -118 -98 -146 l-4 -29 125 0 125 0 0 35 0 34 -66 3 -65 3 64 82 c38
48 64 90 62 100 -2 10 -4 21 -4 26 -1 4 -53 7 -116 7 l-115 0 0 -35z"/>
<path d="M1069 1603 c10 -27 35 -88 55 -137 34 -84 35 -91 20 -113 -8 -13 -26
-28 -40 -33 -20 -8 -23 -14 -18 -37 9 -38 17 -45 46 -38 61 15 108 92 176 288
l42 117 -48 0 -48 0 -24 -97 c-19 -81 -25 -94 -31 -73 -4 14 -17 58 -29 98
l-21 72 -49 0 -50 0 19 -47z"/>
<path d="M2246 1640 c-86 -27 -124 -135 -73 -211 43 -64 126 -86 196 -51 70
35 96 109 67 185 -26 68 -109 102 -190 77z m90 -71 c9 -10 18 -36 20 -59 3
-33 -1 -46 -21 -66 -30 -30 -40 -30 -69 -1 -19 19 -23 33 -21 68 5 66 55 98
91 58z"/>
<path d="M2502 1483 c0 -93 0 -174 -1 -180 -1 -10 -29 -13 -103 -13 -100 0
-102 0 -78 -17 86 -60 110 -133 71 -220 -35 -75 -134 -113 -283 -107 -116 4
-267 42 -358 89 l-29 15 -12 -42 c-11 -44 -16 -64 -25 -108 -3 -14 -13 -55
-23 -92 -10 -37 -15 -71 -12 -77 10 -16 177 -68 271 -85 124 -22 350 -16 455
13 220 61 354 180 409 364 15 50 17 232 2 255 -5 8 -38 12 -102 12 l-94 0 0
49 0 49 31 -15 c84 -42 178 33 174 137 -4 92 -59 147 -138 136 -22 -3 -49 -13
-59 -22 -17 -17 -24 -10 -19 19 0 4 -17 7 -38 7 l-40 0 1 -167z m188 75 c40
-43 15 -128 -37 -128 -40 0 -63 27 -63 73 0 71 56 102 100 55z"/>
<path d="M429 1233 c-1 -84 -1 -512 0 -550 l1 -33 525 0 525 0 0 160 0 160
-335 0 -335 0 0 160 0 160 -190 0 -190 0 -1 -57z"/>
</g>
</svg>
